<?xml version="1.0" encoding="UTF-8" standalone="no"?>
<!-- Created with Inkscape (http://www.inkscape.org/) -->

<svg
   width="52.916668mm"
   height="52.916668mm"
   viewBox="0 0 52.916668 52.916668"
   version="1.1"
   id="svg1035"
   sodipodi:docname="action-batman-svg.svg"
   inkscape:version="1.1.2 (b8e25be833, 2022-02-05)"
   xmlns:inkscape="http://www.inkscape.org/namespaces/inkscape"
   xmlns:sodipodi="http://sodipodi.sourceforge.net/DTD/sodipodi-0.dtd"
   xmlns="http://www.w3.org/2000/svg"
   xmlns:svg="http://www.w3.org/2000/svg">
  <sodipodi:namedview
     id="namedview1037"
     pagecolor="#ffffff"
     bordercolor="#666666"
     borderopacity="1.0"
     inkscape:pageshadow="2"
     inkscape:pageopacity="0.0"
     inkscape:pagecheckerboard="0"
     inkscape:document-units="mm"
     showgrid="false"
     inkscape:zoom="2.8284271"
     inkscape:cx="129.93087"
     inkscape:cy="79.903066"
     inkscape:window-width="1920"
     inkscape:window-height="1017"
     inkscape:window-x="-8"
     inkscape:window-y="-8"
     inkscape:window-maximized="1"
     inkscape:current-layer="layer3" />
  <defs
     id="defs1032" />
  <g
     inkscape:label="Calque 1"
     inkscape:groupmode="layer"
     id="layer1"
     transform="translate(-7.9521661,-25.464802)"
     sodipodi:insensitive="true">
    <rect
       style="fill:#800000;stroke:none;stroke-width:0.1;stroke-linecap:round;stroke-linejoin:round"
       id="rect1632"
       width="52.916668"
       height="52.916668"
       x="7.9521661"
       y="25.464802" />
  </g>
  <g
     inkscape:groupmode="layer"
     id="layer3"
     inkscape:label="couleurs"
     transform="translate(-7.9521661,-25.464802)">
    <path
       style="fill:#0000ff;stroke:none;stroke-width:0.0564001px;stroke-linecap:butt;stroke-linejoin:miter;stroke-opacity:1"
       d="m 27.118242,33.564387 1.242888,-1.073071 1.695131,-0.714238 1.390388,-0.466639 c 0,0 0.399976,0.333313 0.457114,0.352359 0.05714,0.01906 0.466941,0.95884 0.466941,0.95884 l 0.848474,0.808071 0.888877,0.606052 c 0,0 0.579119,0.525248 0.525246,0.511779 -0.05387,-0.01357 -1.185171,0.404035 -1.185171,0.404035 0,0 -0.808069,-0.188548 -0.861941,-0.242421 -0.05388,-0.05387 -0.942748,-0.202017 -0.942748,-0.202017 0,0 -3.232284,1.117831 -3.366963,1.090896 -0.134682,-0.02693 -1.306382,-0.107749 -1.306382,-0.107749 0,0 -0.08082,-0.363631 -0.107748,-0.444439 -0.02693,-0.08081 0.269357,-0.538714 0.32323,-0.68686 0.05387,-0.148144 -0.06733,-0.794602 -0.06733,-0.794602 z"
       id="path1454" />
    <path
       style="fill:#0000ff;stroke:none;stroke-width:0.264583px;stroke-linecap:butt;stroke-linejoin:miter;stroke-opacity:1"
       d="m 36.767598,44.596909 c 0,0 0.50818,0.631036 0.642204,0.731554 0.134025,0.100519 1.155968,0.977268 1.250903,1.038696 0.09493,0.06143 0.351816,0.27922 0.351816,0.27922 0,0 -0.04467,0.441166 -0.234542,0.3574 -0.189871,-0.08377 -2.049471,-1.049864 -2.239341,-1.239733 -0.189868,-0.18987 -0.480256,-0.502595 -0.502594,-0.586361 -0.02233,-0.08377 -0.150779,-0.184285 -0.01117,-0.251297 0.13961,-0.06701 0.787397,-0.234545 0.742723,-0.329479 z"
       id="path878" />
    <path
       style="fill:#0000ff;stroke:none;stroke-width:0.264583px;stroke-linecap:butt;stroke-linejoin:miter;stroke-opacity:1"
       d="m 40.055562,50.2551 c 0,0 -0.06318,-0.331695 -0.02368,-0.505441 0.03949,-0.173745 0.118461,-0.34749 0.118461,-0.34749 l 0.331695,-0.102668 0.533083,-0.0079 0.229028,-0.159924 c 0,0 0.165849,-0.05331 0.248772,-0.04146 0.08292,0.01184 1.074063,0.444235 1.093806,0.456081 0.01974,0.01185 0.08292,0.122412 0.08687,0.134258 0.0039,0.01184 0.02368,0.106616 0.02566,0.155976 0.0019,0.04936 -0.02764,0.446209 -0.02764,0.446209 0,0 -0.01381,0.805547 0.0059,0.900317 0.01974,0.09477 0.03159,0.493595 0.0039,0.588365 -0.02764,0.09477 -0.122412,0.264567 -0.165848,0.304054 -0.04344,0.03949 -0.38698,0.422518 -0.556776,0.371184 -0.169797,-0.05134 -0.608108,0.201387 -0.651545,0.256669 -0.04344,0.05528 -0.355388,0.304054 -0.568621,0.205336 -0.213233,-0.09872 -0.363286,-0.205336 -0.40672,-0.347491 -0.04344,-0.142155 -0.122412,-0.304054 -0.02371,-0.643648 0.09872,-0.339593 0.25667,-0.315901 0.169797,-0.584416 -0.0868,-0.268516 -0.422443,-1.078011 -0.422443,-1.078011 z"
       id="path946" />
    <path
       style="fill:#0000ff;stroke:none;stroke-width:0.264583px;stroke-linecap:butt;stroke-linejoin:miter;stroke-opacity:1"
       d="m 26.313888,47.309327 c 0,0 0.260618,0.766059 0.300105,0.939805 0.03949,0.173745 0.331696,0.971394 0.331696,0.971394 l 0.355388,0.631801 0.0158,0.675238 -0.142155,1.765095 -0.181643,0.157948 -0.03122,0.03373 -0.07648,0.368972 -0.03204,0.417544 -0.01757,0.418579 -0.01137,0.252182 0.146761,0.782381 0.09715,0.162264 0.103353,0.695563 -0.05374,2.00918 0.186035,1.302247 0.235644,1.041797 c 0,0 0.818555,2.52181 1.182357,3.001367 0.363802,0.479557 1.409733,2.257227 1.409733,2.257227 l -0.268717,0.843359 -0.239779,1.223698 0.001,0.271817 -1.001487,-1.082104 -0.903304,-0.749307 -0.845427,-0.466122 -0.649056,0.09508 -1.074869,1.269175 -0.897103,1.570963 -1.384929,-3.679362 -0.504362,-2.621028 -0.132291,-2.43086 -0.0248,-2.637565 0.454753,-2.108398 0.851627,-2.497005 0.950847,-1.852084 1.041796,-1.694987 0.686263,-1.066601 z"
       id="path1145" />
    <path
       style="fill:#0000ff;stroke:none;stroke-width:0.264583px;stroke-linecap:butt;stroke-linejoin:miter;stroke-opacity:1"
       d="m 32.277296,63.225804 c 0,0 0.504362,-0.835091 0.901237,-0.74414 0.396875,0.09095 1.223698,0.79375 1.223698,0.79375 l 0.843359,0.917773 0.508495,0.698664 0.611849,-1.223698 -2.203482,-2.997232 -1.463476,-2.083593 -0.338998,0.07441 -0.239778,0.562239 c 0,0 -0.297657,2.89388 0.157096,4.001823 z"
       id="path1213" />
    <path
       style="fill:#0000ff;stroke:none;stroke-width:0.264583px;stroke-linecap:butt;stroke-linejoin:miter;stroke-opacity:1"
       d="m 35.141411,52.794363 0.140316,-0.137393 0.14324,0.14324 0.28648,0.619731 1.438244,2.131057 1.140071,1.186845 0.321558,0.163703 0.339098,-0.315715 c 0,0 1.058223,0.426797 1.53179,0.508649 0.473569,0.08185 3.905477,0.292325 5.378799,0.09354 1.473324,-0.198781 1.905966,-0.175395 1.905966,-0.175395 0,0 -0.53788,0.339098 -0.53788,0.549574 0,0.210474 0.280633,0.923751 0.280633,0.923751 l 1.239462,1.79488 -2.701092,-0.830204 -1.572715,-0.204629 -1.186844,0.204629 -0.397563,0.391715 -0.0058,0.485262 0.309867,1.093298 0.572958,1.093301 -1.052373,-0.578806 -1.017293,-0.549573 -1.087454,-0.140317 -0.912058,0.0877 -0.380024,-0.970524 -1.44409,-2.169059 -1.280388,-1.713029 -1.233617,-1.216078 -0.315712,-0.374176 0.128625,-1.034836 0.02339,-0.561266 0.0052,-0.302437 z"
       id="path1281" />
    <path
       style="fill:#ffff00;stroke:#000000;stroke-width:0.264583px;stroke-linecap:butt;stroke-linejoin:miter;stroke-opacity:1"
       d="m 27.055909,52.483308 0.283187,0.28112 0.06408,0.210838 c 0,0 -0.03927,0.150895 0.02481,0.212908 0.06408,0.06201 0.250113,0.136425 0.250113,0.136425 l 0.130225,-0.179832 0.752409,0.336928 1.008724,0.285255 0.07028,0.181901 0.446484,0.136425 0.05788,-0.326594 1.711523,0.03721 0.898137,-0.01447 0.05994,0.02376 0.209807,0.112655 0.241845,-0.117822 0.11989,-0.225308 0.735872,-0.146762 0.876432,-0.471289 0.146762,-0.01035 0.08061,0.181901 -0.0513,0.727273 -0.06445,0.566703 -0.136424,0.622184 -2.463933,1.021127 -2.447395,0.124024 -1.967839,-0.429948 -0.912199,-0.682162 -0.21228,-0.434049 -0.117822,-0.326596 -0.02894,-0.436148 0.09302,-1.200962 0.04651,-0.195339 z"
       id="path1448" />
  </g>
  <g
     inkscape:groupmode="layer"
     id="layer2"
     inkscape:label="dessin"
     style="display:inline"
     transform="translate(-7.9521661,-25.464802)"
     sodipodi:insensitive="true">
    <path
       style="fill:#000000;stroke-width:0.0646946"
       d="M 40.921357,76.912135 C 40.29118,76.413915 39.914194,75.833201 39.529113,74.76749 39.292354,74.11225 39.1141,73.75103 38.721582,73.131048 l -0.216875,-0.342555 0.148379,-0.304391 c 0.236555,-0.485251 0.325982,-0.853529 0.326733,-1.345546 8.53e-4,-0.546419 -0.107203,-0.887744 -0.603095,-1.905545 -0.198534,-0.407486 -0.405915,-0.914396 -0.460839,-1.126469 -0.128429,-0.495839 -0.127809,-1.36407 0.0013,-1.8624 l 0.101229,-0.390527 -0.218841,-0.233409 c -0.641025,-0.683705 -0.904595,-0.977108 -1.15482,-1.285526 -0.152853,-0.188389 -0.300931,-0.315772 -0.331525,-0.285176 -0.03042,0.03041 -0.166113,0.265904 -0.301574,0.523321 l -0.246279,0.468029 -0.327994,-0.442436 c -0.422515,-0.569942 -1.532456,-1.648735 -1.877388,-1.824708 -0.407455,-0.207869 -0.614381,-0.181717 -0.840035,0.10617 -0.304046,0.387901 -0.325991,0.463896 -0.247524,0.8572 0.05965,0.298956 0.09167,0.353193 0.20038,0.339378 0.07115,-0.009 0.267672,-0.03494 0.436688,-0.05752 l 0.307298,-0.04109 10e-4,0.219267 c 0.0018,0.415328 0.380402,1.736238 0.648073,2.261135 0.361412,0.708724 0.60958,1.949429 0.534817,2.673796 -0.03457,0.334936 -0.04924,0.362217 -0.174109,0.323973 -0.435743,-0.133443 -1.525355,-0.924494 -1.77325,-1.287357 -0.140434,-0.20556 -0.271605,-0.792663 -0.271605,-1.215648 0,-0.215773 -0.01696,-0.247064 -0.113206,-0.208745 -0.06227,0.02478 -0.334773,0.0609 -0.605565,0.08024 l -0.492352,0.03516 -0.468967,-0.661435 c -0.257933,-0.363788 -0.492173,-0.636961 -0.520536,-0.607048 -0.111126,0.117203 -0.516534,1.730723 -0.516534,2.055811 0,0.0062 -0.371184,-0.356873 -0.824854,-0.806861 -0.97127,-0.96339 -1.661452,-1.420995 -2.1432,-1.420995 -0.271075,0 -0.311586,0.02606 -0.779403,0.501381 -0.49334,0.501258 -1.095009,1.337869 -1.36567,1.898948 l -0.143636,0.297757 0.177363,0.446228 c 0.392012,0.986263 1.182817,2.706389 1.72448,3.751019 0.315184,0.607845 0.57306,1.126365 0.57306,1.152261 0,0.06176 -0.40442,-0.40754 -1.018189,-1.181543 -0.629643,-0.794017 -2.003785,-2.199575 -2.452642,-2.508715 -0.334946,-0.230684 -0.34906,-0.234305 -0.473721,-0.121496 -0.26357,0.238526 -0.598771,1.531065 -0.688308,2.654113 l -0.04127,0.517558 -0.152236,-0.517558 c -1.24017,-4.216022 -1.90353,-9.384448 -1.640355,-12.780401 0.168687,-2.1767 0.609626,-3.918208 1.495965,-5.908377 0.835097,-1.875116 2.36863,-4.411247 3.880343,-6.417256 l 0.247217,-0.328052 -0.0078,-0.901143 c -0.0043,-0.495628 0.02656,-1.083124 0.06863,-1.305548 l 0.07648,-0.404404 -0.390106,-0.592153 c -0.547138,-0.830516 -0.670077,-1.184729 -0.636452,-1.833761 0.03164,-0.610808 0.270496,-1.179522 0.734794,-1.749556 0.15733,-0.193152 0.286049,-0.390192 0.286049,-0.437865 0,-0.04767 -0.06974,-0.152186 -0.154976,-0.232262 -0.08524,-0.08008 -0.252629,-0.288877 -0.371993,-0.464014 -0.216213,-0.317236 -0.21836,-0.318422 -0.572845,-0.316299 -0.476199,0.0028 -1.245066,0.146703 -1.682058,0.314706 l -0.355819,0.136791 0.30335,-0.282393 c 0.166847,-0.155308 0.574418,-0.464088 0.905723,-0.686162 l 0.602372,-0.403769 -0.290269,0.04698 c -0.159651,0.02584 -0.403488,0.08692 -0.541865,0.135759 -0.13837,0.04881 -0.28249,0.08877 -0.320256,0.08877 -0.1239,0 0.29965,-0.392967 0.958308,-0.889109 0.70706,-0.532603 0.710749,-0.51872 -0.09704,-0.365182 l -0.22643,0.04304 0.194082,-0.208974 c 0.106746,-0.114932 0.485195,-0.461042 0.840996,-0.769129 0.3558,-0.308088 0.763797,-0.667639 0.906659,-0.799007 0.142869,-0.131364 0.367439,-0.320599 0.499059,-0.420514 0.271536,-0.206128 0.294762,-0.292663 0.124313,-0.463114 -0.132735,-0.132735 -1.220321,-0.295339 -2.484239,-0.37143 l -0.695468,-0.04186 v -0.182748 c 0,-0.100521 0.07008,-0.264211 0.15571,-0.363778 l 0.155709,-0.181028 1.650529,-0.03283 c 0.907791,-0.01807 1.674661,-0.05705 1.70415,-0.08664 0.108531,-0.108899 -0.382172,-0.366676 -2.016399,-1.05923 -0.462564,-0.196026 -0.859712,-0.386313 -0.882548,-0.422856 -0.07042,-0.11269 0.06406,-0.457338 0.251668,-0.644945 0.1751,-0.175099 0.186364,-0.177195 0.598753,-0.111392 0.596587,0.09521 1.588045,0.43918 2.48397,0.861776 0.423255,0.199644 0.838056,0.362988 0.921781,0.362988 0.456654,0 -0.147994,-0.969287 -1.544264,-2.475544 -0.33009,-0.356091 -0.608798,-0.669369 -0.61935,-0.696171 -0.02763,-0.07015 0.388639,-0.314808 0.61147,-0.359372 0.155226,-0.03105 0.258639,0.01431 0.574829,0.252226 0.504958,0.37992 1.663465,1.57615 2.069898,2.137296 0.528537,0.729731 0.534449,0.735734 0.614644,0.62401 0.159952,-0.222829 -0.11033,-1.617923 -0.582163,-3.004853 -0.108294,-0.318349 -0.174985,-0.598223 -0.148178,-0.621944 0.09874,-0.08739 0.495617,-0.190176 0.734378,-0.190176 0.20241,0 0.274781,0.03795 0.409739,0.214896 0.353267,0.463155 0.872505,1.84552 1.304137,3.471992 0.372455,1.403483 0.816373,1.962597 2.264042,2.851554 0.376688,0.23131 1.356874,0.699968 1.798508,0.859925 0.117203,0.04245 0.117469,0.04924 0.0068,0.171495 -0.239521,0.264668 -0.716334,0.516965 -0.975529,0.516182 -0.350408,-0.0011 -1.357803,-0.26087 -2.118954,-0.546486 -0.350158,-0.131393 -0.645016,-0.229411 -0.655239,-0.217816 -0.01772,0.0201 -0.143046,0.696438 -0.555157,2.995996 -0.172463,0.962353 -0.177655,1.038119 -0.07487,1.092225 0.06076,0.03198 0.288126,0.23765 0.505278,0.457052 0.429021,0.433461 0.626791,0.843003 0.751933,1.557086 0.03741,0.213493 0.100196,0.408824 0.139505,0.43407 0.03931,0.02525 0.260902,0.03077 0.492415,0.01224 l 0.420935,-0.03366 0.470027,-0.497454 c 0.675835,-0.715271 1.485771,-1.77023 2.01958,-2.630547 0.254516,-0.410196 0.478805,-0.745808 0.498416,-0.745808 0.03915,0 -0.0345,1.175913 -0.08785,1.403045 -0.0286,0.121776 0.0014,0.147795 0.215358,0.186658 0.319646,0.05807 0.672413,0.236483 0.950807,0.480917 0.121319,0.106524 0.236107,0.193685 0.255067,0.193685 0.01895,0 0.143901,-0.152838 0.277641,-0.339645 0.133752,-0.186806 0.265553,-0.365629 0.292911,-0.397384 0.07729,-0.08971 -0.0024,0.63435 -0.150866,1.372892 -0.115242,0.572853 -0.159669,0.686869 -0.311272,0.798949 -0.119106,0.08806 -0.166281,0.171069 -0.14452,0.254281 0.01845,0.07062 -0.07368,0.324214 -0.215092,0.591982 -0.136069,0.257641 -0.409491,0.861459 -0.607601,1.341816 l -0.360204,0.873373 -0.208781,-0.02106 c -0.199423,-0.0201 -0.208779,-0.01092 -0.208779,0.204981 0,0.200969 0.06276,0.284312 0.566075,0.75171 0.311341,0.289126 0.825539,0.706355 1.142663,0.927175 0.31712,0.220819 0.665105,0.477941 0.773297,0.571385 l 0.196723,0.169894 -0.08112,1.932676 c -0.04462,1.062972 -0.09891,2.308375 -0.120655,2.767557 l -0.03953,0.834881 0.268348,-0.150816 c 0.452932,-0.254564 0.723015,-0.51036 0.723015,-0.684774 0,-0.18248 -0.265916,-0.738211 -0.410751,-0.858411 -0.06773,-0.05621 -0.0872,-0.153439 -0.064,-0.319408 0.06194,-0.442742 0.224082,-0.949717 0.329767,-1.031104 0.05775,-0.04447 0.269605,-0.08087 0.470783,-0.08087 0.283613,0 0.392077,-0.02906 0.482871,-0.129387 0.06986,-0.07719 0.199256,-0.129386 0.320748,-0.129386 0.21352,0 1.214792,0.449859 1.296873,0.582668 0.02618,0.04236 0.0573,0.576277 0.06913,1.186479 0.01718,0.885143 0.0027,1.138253 -0.07179,1.251887 -0.05133,0.07834 -0.297478,0.305323 -0.546999,0.504412 -0.697666,0.556655 -0.850792,0.955692 -0.846083,2.204829 0.0016,0.442125 -0.01959,0.803866 -0.04725,0.803866 -0.02764,0 -0.147308,-0.160119 -0.265912,-0.35582 -0.118635,-0.195708 -0.23082,-0.355826 -0.249333,-0.355826 -0.0185,0 -0.01475,0.312959 0.0084,0.695465 0.0231,0.382507 0.01752,0.733007 -0.01239,0.778894 -0.03826,0.05873 -0.129372,-0.03704 -0.307728,-0.323473 l -0.253378,-0.406901 -0.03235,0.965828 -0.03235,0.965825 -0.155844,-0.333381 c -0.0857,-0.183361 -0.232856,-0.449721 -0.326994,-0.591916 l -0.171156,-0.258531 -0.380269,0.353902 c -0.209148,0.194645 -0.408802,0.353899 -0.443678,0.353899 -0.167196,0 -0.740522,-0.458028 -1.290301,-1.03082 -0.810883,-0.844825 -1.48091,-1.865182 -1.907049,-2.90417 -0.162272,-0.395639 -0.294473,-0.405628 -0.195259,-0.01475 0.04437,0.174802 0.04232,0.487609 -0.0065,0.98506 l -0.07149,0.72892 0.306986,0.323502 c 0.16884,0.177925 0.321539,0.338901 0.339331,0.357723 2.144272,2.268462 3.169348,3.639864 3.810337,5.097685 l 0.248406,0.564953 0.542234,-0.01953 c 0.83886,-0.03021 1.590701,0.217329 2.562456,0.843655 0.240991,0.155326 0.478792,0.307068 0.528448,0.3372 0.04965,0.03015 0.0118,-0.07328 -0.08393,-0.229801 -0.525296,-0.858104 -0.797659,-1.629418 -0.720537,-2.040515 0.05512,-0.293814 0.362661,-0.631898 0.696219,-0.765362 0.848816,-0.339628 2.519639,-0.0867 4.473382,0.677173 0.364484,0.1425 0.686039,0.259103 0.714564,0.259103 0.02853,0 -0.116702,-0.181953 -0.322732,-0.404338 -0.612637,-0.661293 -1.256704,-1.732201 -1.256704,-2.089568 0,-0.04615 0.07537,-0.173518 0.167488,-0.282993 0.10527,-0.12511 0.135316,-0.198659 0.08086,-0.198004 -0.04764,6.38e-4 -0.699955,0.05738 -1.449588,0.126245 -2.680862,0.246283 -4.169698,0.236277 -5.122651,-0.03441 l -0.339645,-0.09648 V 56.70299 c 0,-0.523113 0.0093,-0.527248 0.27738,-0.12269 l 0.166112,0.250729 0.07256,-0.283077 c 0.03991,-0.155692 0.08477,-0.31947 0.0997,-0.363947 0.01907,-0.05689 0.205205,-0.08102 0.627578,-0.08139 1.431062,-0.0013 3.931007,-0.441848 5.810133,-1.023963 1.318303,-0.408381 2.549306,-0.591648 3.976936,-0.592074 1.078311,-4.28e-4 1.879849,0.118339 2.66056,0.393845 1.866075,0.658545 4.193614,2.247501 5.396191,3.68385 0.147694,0.176406 0.251135,0.320736 0.229867,0.320736 -0.02128,0 -0.385581,-0.243572 -0.80958,-0.541272 -1.089373,-0.764868 -2.249236,-1.345644 -3.372752,-1.688826 -0.662917,-0.202503 -1.915901,-0.370687 -2.576057,-0.345784 l -0.542018,0.02044 0.477324,0.302095 c 0.83399,0.527834 2.955833,2.391727 3.167652,2.782565 0.03668,0.06769 -0.240093,-0.04345 -0.733456,-0.294529 -0.435808,-0.221786 -1.199949,-0.571036 -1.698096,-0.776115 -1.956644,-0.805511 -3.190051,-1.119004 -4.658003,-1.183917 l -0.841077,-0.03717 -0.323473,0.21814 c -0.26841,0.181011 -0.327072,0.255947 -0.344626,0.440227 -0.0283,0.297109 0.31039,0.956032 0.900077,1.751095 0.25071,0.33803 0.513937,0.694395 0.584947,0.79192 l 0.129107,0.177317 -0.286178,-0.122676 c -0.497685,-0.213332 -1.666852,-0.569606 -2.471306,-0.753068 -1.28331,-0.292668 -2.700529,-0.253009 -3.08916,0.08645 -0.336536,0.293948 0.04772,1.732113 0.76738,2.872137 0.08499,0.134623 0.154524,0.260787 0.154524,0.280371 0,0.01959 -0.216074,-0.110197 -0.480161,-0.288405 -0.592927,-0.400105 -1.48493,-0.85392 -2.042924,-1.03936 -0.443834,-0.1475 -1.509537,-0.250673 -1.570493,-0.152035 -0.04354,0.07045 0.605702,2.152811 0.819346,2.627989 0.08385,0.186504 0.342823,0.621788 0.575488,0.967296 0.544235,0.808193 0.56331,0.899136 0.297822,1.420046 -0.188342,0.369541 -0.207527,0.459069 -0.193787,0.904225 0.0099,0.319283 -0.03073,0.687693 -0.114726,1.041374 -0.135139,0.56897 -0.209134,0.753162 -0.799681,1.990398 -0.195312,0.409194 -0.450118,1.012612 -0.566237,1.340928 l -0.211126,0.596941 0.514389,0.79399 c 0.859781,1.327136 0.934591,1.458913 1.066035,1.877743 0.164477,0.5241 0.213722,1.398243 0.104474,1.85457 -0.04615,0.192797 -0.112882,0.360174 -0.148278,0.371947 -0.03539,0.01165 -0.224471,-0.105182 -0.420172,-0.2599 z m -1.638311,-7.710043 c 0.180359,-0.08989 0.492669,-0.33613 0.694023,-0.547231 l 0.366098,-0.383814 0.233342,0.324795 c 0.128339,0.178639 0.254053,0.301162 0.279367,0.272275 0.09349,-0.106672 0.25279,-0.594969 0.354069,-1.085281 0.09995,-0.483865 0.08707,-0.691298 -0.03024,-0.487017 -0.03047,0.05307 -0.101465,0.154725 -0.157747,0.225892 -0.106701,0.134918 -0.01431,-0.141408 0.270391,-0.80868 0.06832,-0.160119 0.161923,-0.428653 0.208012,-0.596736 l 0.0838,-0.305611 -0.392911,-0.664807 c -0.449774,-0.761023 -0.693695,-1.280468 -1.249237,-2.660335 -0.938319,-2.330614 -1.479428,-3.268546 -3.203059,-5.552007 -0.359779,-0.476633 -0.517807,-0.635303 -0.664921,-0.667613 -0.370766,-0.08143 -1.240757,0.22167 -1.880914,0.655308 -0.635589,0.430548 -1.229194,1.226325 -1.229194,1.64784 0,0.201995 0.484338,0.938145 1.229419,1.868596 0.645453,0.806039 2.355589,3.088156 2.714863,3.622889 0.155391,0.231286 0.619728,0.853669 1.031855,1.383074 1.254118,1.611004 1.31427,1.699572 0.763253,1.123839 -0.263922,-0.27576 -0.502124,-0.501384 -0.529337,-0.501384 -0.0272,0 -0.0359,0.385741 -0.01931,0.857204 0.02649,0.752138 0.05471,0.924597 0.23025,1.407104 0.308869,0.848952 0.3964,1.035112 0.486707,1.035112 0.0459,0 0.231036,-0.07354 0.411396,-0.163408 z M 25.389809,65.975115 c 0.388659,-0.50344 0.81645,-0.868059 1.07546,-0.91665 0.285579,-0.05357 0.619203,0.0622 1.129026,0.391828 0.563267,0.36417 0.976615,0.749044 1.52032,1.415596 l 0.452863,0.555183 0.07207,-0.628972 c 0.07943,-0.693201 0.119047,-0.885808 0.265264,-1.289285 l 0.09862,-0.272145 -0.484469,-0.665924 c -0.676391,-0.92973 -0.987587,-1.454067 -1.380903,-2.326685 -0.822784,-1.825446 -1.193962,-3.630048 -1.201984,-5.843826 -0.0022,-0.610099 0.01653,-1.202934 0.0417,-1.31741 0.03322,-0.151217 0.01387,-0.256085 -0.07092,-0.383423 -0.206414,-0.31018 -0.197171,-1.691774 0.01619,-2.423413 0.01817,-0.06227 0.07058,-0.113206 0.116466,-0.113206 0.06316,0 0.09459,-0.272629 0.129269,-1.121438 l 0.04583,-1.121438 -0.230175,-0.392732 c -0.229644,-0.391829 -0.570165,-1.183919 -0.653886,-1.521012 -0.02429,-0.09785 -0.06286,-0.177548 -0.08568,-0.177109 -0.05635,0.0011 -0.895532,1.268229 -1.357235,2.049364 -1.17526,1.988372 -2.006161,4.098904 -2.300175,5.842561 -0.577061,3.42229 -0.08183,7.272993 1.479863,11.506764 l 0.247302,0.670439 0.394466,-0.773136 c 0.216956,-0.425224 0.523278,-0.939988 0.680717,-1.14392 z m 6.87859,0.474867 c 0.482352,-0.129755 0.630844,-0.235918 0.630844,-0.45097 0,-0.10623 -0.145125,-0.572638 -0.32248,-1.036463 -0.516097,-1.349642 -0.692812,-2.174343 -0.754707,-3.522119 -0.03435,-0.747879 0.02159,-1.595781 0.146452,-2.220111 l 0.03797,-0.189757 -0.669588,-0.0015 c -1.094567,-0.0024 -1.6992,-0.18268 -3.147515,-0.938862 -0.473311,-0.247119 -0.874881,-0.434994 -0.892376,-0.4175 -0.07089,0.07089 0.331608,1.822289 0.620532,2.700193 0.571359,1.736095 1.16775,2.979768 2.231686,4.653811 0.329367,0.518244 0.649692,1.044157 0.711833,1.168692 0.207606,0.416074 0.243965,0.435451 0.711505,0.379162 0.23146,-0.02788 0.544598,-0.08396 0.695862,-0.124652 z m 3.588899,-1.888044 c 0.03767,-0.11564 0.120301,-0.344989 0.183621,-0.509664 l 0.115109,-0.299407 -0.555876,-0.74378 c -0.77239,-1.033482 -2.028781,-2.852039 -2.377434,-3.441202 -0.441314,-0.745745 -0.402095,-0.706811 -0.662691,-0.657924 -0.126805,0.02378 -0.249311,0.09217 -0.272254,0.151953 -0.09402,0.245002 -0.115934,2.033291 -0.0362,2.952515 l 0.083,0.956646 0.29079,-0.294944 c 0.367035,-0.372282 0.603672,-0.427191 0.993256,-0.230473 0.386161,0.19499 1.3078,1.143491 1.739904,1.790615 0.195211,0.292348 0.371877,0.532526 0.392595,0.533727 0.02071,0.0013 0.0685,-0.09241 0.106185,-0.208068 z m 2.929144,-7.958909 c 0.08896,-0.0808 0.229267,-0.223078 0.311802,-0.316185 l 0.150065,-0.16929 -0.288753,-0.421769 c -0.443313,-0.647519 -0.584497,-1.069051 -0.589454,-1.759913 -0.0024,-0.320238 0.02075,-0.633198 0.05127,-0.695465 0.03449,-0.07045 0.03027,-0.113206 -0.01121,-0.113206 -0.121098,0 -0.480379,0.34592 -0.567831,0.546695 l -0.08593,0.19729 -0.0024,-0.291125 c -0.0041,-0.530178 0.326829,-0.856064 1.055992,-1.039671 l 0.299818,-0.0755 v -1.419059 -1.419055 l -0.177873,-0.222971 c -0.09784,-0.122632 -0.195564,-0.222972 -0.21714,-0.222974 -0.02158,0 -0.05465,0.302065 -0.0735,0.67126 -0.01883,0.369194 -0.07399,0.753423 -0.122513,0.853843 -0.06612,0.136821 -0.316918,0.305028 -1.00066,0.671149 -0.992539,0.531469 -2.030909,1.170605 -2.03108,1.250163 -1.93e-4,0.105462 0.542151,1.121665 0.869438,1.629003 0.522441,0.809851 2.030412,2.494204 2.232614,2.493753 0.01956,-4.4e-5 0.108309,-0.06618 0.19726,-0.146984 z M 32.598815,55.80663 c 0.06512,-0.02499 0.09642,-0.280072 0.124697,-1.01566 0.02075,-0.540262 0.03242,-0.987276 0.02587,-0.993363 -0.0065,-0.0062 -0.288448,0.01804 -0.626476,0.05363 -0.33803,0.03559 -0.908722,0.04924 -1.268206,0.03031 l -0.653606,-0.03438 -0.04013,0.658953 c -0.02208,0.362425 -0.05931,0.810043 -0.08276,0.994705 l -0.04261,0.335752 0.31585,0.02909 c 0.375816,0.03462 2.122934,-0.01136 2.247378,-0.05903 z m -3.158641,-0.644453 c 0.02531,-0.304035 0.0335,-0.565345 0.01816,-0.580686 -0.01537,-0.01537 -0.254053,0.03359 -0.530474,0.108722 l -0.50258,0.136615 -0.314692,-0.309961 c -0.355671,-0.350321 -0.343145,-0.360463 -0.411093,0.332878 -0.03239,0.330544 -0.03173,0.331972 0.206106,0.438526 0.419446,0.187919 1.138711,0.418985 1.316433,0.422903 0.169725,0.0037 0.172738,-0.0038 0.218151,-0.548997 z m 0.512534,-0.01342 c 0.02185,-0.24018 0.05503,-0.56024 0.07375,-0.711248 0.03068,-0.247475 0.01767,-0.282016 -0.131879,-0.350155 -0.09124,-0.04158 -0.178776,-0.06275 -0.194497,-0.04701 -0.01569,0.01569 -0.04898,0.3698 -0.07391,0.786841 l -0.04534,0.758262 h 0.16608 c 0.157981,0 0.168017,-0.02128 0.20579,-0.436688 z m 4.283389,0.100418 c 0.255877,-0.10741 0.521456,-0.247667 0.590173,-0.311687 0.121201,-0.112926 0.25728,-0.747488 0.177418,-0.82735 -0.02031,-0.02031 -0.167569,0.09129 -0.327233,0.247972 l -0.290298,0.284905 -0.517027,-0.01959 -0.517025,-0.01959 -7.04e-4,0.215859 c -3.83e-4,0.118723 -0.01943,0.329108 -0.04229,0.467526 l -0.04158,0.251667 0.251661,-0.04721 c 0.138414,-0.02597 0.461017,-0.135081 0.716895,-0.242499 z m -1.113583,0.06133 c 0.01386,-0.04447 0.04332,-0.378815 0.06555,-0.74297 l 0.04043,-0.662105 -0.148461,0.05459 c -0.12418,0.04568 -0.155242,0.116908 -0.189955,0.435675 -0.02283,0.209588 -0.04465,0.519359 -0.04851,0.688371 -0.0062,0.268056 0.0097,0.307302 0.124402,0.307302 0.07228,0 0.142735,-0.03639 0.156544,-0.08087 z m -5.81316,-0.986097 c -0.0035,-0.337757 -0.02664,-0.614327 -0.05166,-0.614598 -0.02502,-2.13e-4 -0.119622,0.0333 -0.210258,0.07458 -0.234945,0.10704 -0.22973,0.510494 0.01136,0.882387 0.09691,0.149447 0.194304,0.271727 0.21644,0.271727 0.02214,0 0.03745,-0.276347 0.03407,-0.614102 z m 0.311698,-0.237019 c 0.03511,-0.50964 0.02628,-0.668821 -0.03928,-0.709553 -0.06676,-0.04148 -0.09132,0.08636 -0.116864,0.60852 -0.03347,0.684128 -0.0277,0.758073 0.05926,0.758073 0.02839,0 0.072,-0.295668 0.09688,-0.65704 z m 1.33183,0.46084 c 0.546794,-0.193908 0.582248,-0.225777 0.582248,-0.523361 0,-0.217674 -0.01943,-0.250857 -0.146851,-0.250857 -0.231976,0 -1.09316,-0.254202 -1.328635,-0.392185 -0.11766,-0.06896 -0.226847,-0.12536 -0.242605,-0.12536 -0.01569,0 -0.02864,0.170731 -0.02864,0.379401 0,0.332276 0.02456,0.406607 0.197833,0.598423 0.10881,0.120478 0.244119,0.28599 0.300695,0.367838 0.05658,0.08185 0.134947,0.136747 0.174159,0.122027 0.03921,-0.01475 0.26053,-0.09388 0.491811,-0.175911 z m -0.618403,-0.281134 c -0.05308,-0.211503 0.0065,-0.299 0.203736,-0.299 0.298699,0 0.27504,0.395961 -0.02636,0.440886 -0.100418,0.01503 -0.14747,-0.02266 -0.177392,-0.14188 z m 0.327276,-0.07346 c 0,-0.084 -0.0504,-0.135655 -0.145553,-0.149179 -0.107188,-0.01519 -0.145553,0.01165 -0.145553,0.102438 0,0.0677 0.02043,0.143518 0.04537,0.168473 0.08582,0.08582 0.245759,0.0065 0.245759,-0.121717 z m 5.954446,0.103619 c 0.410337,-0.454195 0.465653,-0.551092 0.513453,-0.899403 l 0.04718,-0.343803 -0.450243,0.226739 c -0.247636,0.124696 -0.65092,0.267188 -0.896192,0.316626 l -0.44595,0.0899 -0.01914,0.394589 c -0.02171,0.447512 -0.03546,0.438278 0.682429,0.458755 0.318209,0.009 0.354351,-0.0063 0.568462,-0.243389 z m -0.485186,-0.03494 c -0.04331,-0.05217 -0.05873,-0.154523 -0.03472,-0.230189 0.06325,-0.199276 0.379748,-0.154458 0.409791,0.05803 0.03364,0.238031 -0.222739,0.355712 -0.375075,0.172158 z m 0.30876,-0.117247 c 0.02575,-0.133694 -0.161004,-0.223787 -0.259581,-0.125213 -0.09856,0.09856 -0.0086,0.285328 0.125213,0.259579 0.06198,-0.0118 0.122425,-0.07239 0.134372,-0.134372 z m -4.38709,-0.337905 v -0.160937 l 1.407105,0.04133 c 0.802948,0.02359 1.424958,0.06868 1.448684,0.104991 0.07298,0.111746 0.378936,-0.0087 0.378936,-0.149164 0,-0.07744 0.04348,-0.128148 0.109887,-0.128148 0.06043,0 0.353673,-0.07437 0.651643,-0.165245 0.504559,-0.153906 0.580701,-0.201662 1.108726,-0.695464 0.641093,-0.599547 1.489793,-1.223015 2.412262,-1.772086 0.344999,-0.205348 0.655025,-0.434276 0.688946,-0.508726 0.05217,-0.114489 0.115315,-0.471384 0.232635,-1.314566 0.01587,-0.114032 -0.191229,-0.440876 -0.799339,-1.261543 -0.937984,-1.26585 -1.309722,-1.798854 -2.577322,-3.695413 -0.820369,-1.227419 -1.755848,-2.426043 -1.893431,-2.426043 -0.02919,0 -0.07214,0.19651 -0.09545,0.436689 -0.0768,0.791935 -0.138916,0.808941 -0.177224,0.04851 -0.0477,-0.946433 -0.301371,-1.749365 -0.776863,-2.458817 -0.187055,-0.279097 -0.37306,-0.518185 -0.413344,-0.53131 -0.09275,-0.03022 -0.206247,0.898596 -0.270504,2.213794 l -0.04741,0.970417 -0.08295,-0.517557 c -0.130773,-0.816068 -0.172393,-2.75718 -0.07837,-3.655981 0.04502,-0.430403 0.0668,-0.797621 0.04838,-0.816038 -0.01842,-0.01842 -0.232765,0.07859 -0.476335,0.215558 -0.641058,0.360499 -1.148732,0.573723 -1.736742,0.729432 -0.663073,0.175583 -1.73693,0.321775 -2.375492,0.32339 -0.447577,0.0012 -0.495156,0.01298 -0.458878,0.114475 0.09372,0.262143 0.769272,1.229565 1.102771,1.579205 0.198202,0.207792 0.337908,0.377801 0.310458,0.377801 -0.07781,0 -0.792538,-0.445831 -1.01549,-0.633433 l -0.200334,-0.168571 -0.130375,0.158399 c -0.228773,0.277935 -0.493129,0.920249 -0.573937,1.394508 -0.06716,0.394133 -0.06287,0.523444 0.03005,0.905722 0.167844,0.690568 0.862642,2.019145 1.496895,2.862329 0.546924,0.72709 0.521759,0.730425 -0.222548,0.02949 -0.219959,-0.207142 -0.371571,-0.307062 -0.398875,-0.262883 -0.09648,0.156109 -0.130921,1.409153 -0.05751,2.091568 0.12151,1.129428 0.301422,1.801232 0.736427,2.749905 0.09102,0.198511 0.152068,0.416856 0.135641,0.48521 -0.01637,0.06835 -0.07105,0.604633 -0.121393,1.191736 -0.07918,0.923299 -0.07907,1.086807 6.83e-4,1.210745 0.05071,0.07881 0.09222,0.198972 0.09222,0.267028 0,0.06806 0.04513,0.161204 0.100315,0.207 0.08452,0.07014 0.105816,0.06227 0.135139,-0.04988 0.03359,-0.128443 0.05345,-0.124549 0.562804,0.110507 0.290391,0.134003 0.724493,0.295346 0.964673,0.358534 0.240177,0.06319 0.436688,0.140611 0.436688,0.17206 0,0.05201 0.221572,0.168318 0.339644,0.178295 0.02668,0.0024 0.04853,-0.06832 0.04853,-0.156828 z m 7.319792,-4.449653 c -0.07185,-0.116245 -0.204921,-0.281156 -0.295724,-0.366459 -0.155894,-0.146453 -0.17183,-0.148997 -0.285824,-0.04584 -0.0664,0.06009 -0.175219,0.210441 -0.24182,0.334111 -0.0666,0.123678 -0.136304,0.224826 -0.154907,0.22479 -0.0186,-3.7e-5 -0.116673,-0.147577 -0.217933,-0.327887 -0.101273,-0.180304 -0.221107,-0.342014 -0.266308,-0.35936 -0.115625,-0.04437 -0.787267,0.201479 -1.080426,0.395481 -0.135007,0.08934 -0.260646,0.162441 -0.2792,0.162441 -0.01856,0 -0.03373,-0.303602 -0.03373,-0.674669 0,-0.505698 -0.0237,-0.698364 -0.09459,-0.769268 -0.09344,-0.09344 -0.756564,-0.238118 -1.091377,-0.238118 -0.205253,0 -0.206441,-0.01033 -0.05289,-0.45891 0.06584,-0.192375 0.139992,-0.459177 0.16476,-0.592893 l 0.04505,-0.243065 -0.652735,-0.319202 c -0.570152,-0.278814 -0.636539,-0.327867 -0.524726,-0.387709 0.123442,-0.06607 1.381918,-0.400983 1.791945,-0.476894 l 0.200025,-0.03702 0.109032,0.507421 c 0.110743,0.515291 0.472719,1.329436 0.590715,1.32857 0.03559,-2.12e-4 0.138502,-0.13716 0.228743,-0.30422 0.226798,-0.41993 0.279839,-0.450663 0.240134,-0.139122 -0.03053,0.239557 -0.01686,0.275676 0.129564,0.342393 0.140685,0.06409 0.18663,0.05372 0.326719,-0.07373 0.10123,-0.0921 0.150734,-0.111539 0.130612,-0.05127 -0.01782,0.05338 -0.08706,0.251523 -0.15384,0.440333 -0.100344,0.283715 -0.1062,0.352702 -0.03372,0.397501 0.171868,0.106214 0.605561,0.134977 0.988408,0.06556 0.213829,-0.03878 0.400954,-0.05834 0.415832,-0.04345 0.103235,0.103235 0.354215,1.921915 0.265218,1.921915 -0.02,0 -0.09515,-0.09511 -0.167001,-0.21136 z m -6.281652,-1.771641 c -0.19233,-0.559107 -0.222694,-0.737526 -0.247983,-1.457067 -0.01653,-0.470441 0.003,-1.002413 0.04573,-1.248022 0.06983,-0.400981 0.384589,-1.358778 0.431215,-1.312152 0.01165,0.01165 -0.02096,0.398446 -0.07242,0.8596 -0.12272,1.099761 -0.119843,2.320001 0.0072,3.059927 0.05617,0.327007 0.09161,0.626119 0.07877,0.664698 -0.01283,0.03857 -0.122012,-0.216565 -0.242548,-0.566984 z M 29.424477,45.897584 C 28.467533,44.405912 28.081716,42.966586 28.212556,41.3764 l 0.05251,-0.6382 0.0541,0.420513 c 0.218136,1.695391 0.585514,3.249367 0.998492,4.223555 0.09375,0.221154 0.210537,0.496717 0.259524,0.612357 0.123576,0.291751 0.0782,0.262914 -0.15272,-0.09704 z m -2.071885,7.317006 c 0.03102,-0.275127 0.01587,-0.323951 -0.148277,-0.477264 -0.178514,-0.166747 -0.183679,-0.167604 -0.219011,-0.03602 -0.01991,0.07412 -0.0366,0.332018 -0.03707,0.573109 l -9.15e-4,0.438349 0.185347,-0.09585 c 0.154139,-0.07971 0.191163,-0.147441 0.219892,-0.402328 z m 13.85652,-0.580264 c 0.08413,-0.03229 0.05922,-0.0791 -0.129077,-0.242607 -0.151201,-0.13129 -0.273555,-0.321979 -0.347638,-0.541774 l -0.114327,-0.339179 -0.0748,0.249642 c -0.09999,0.333788 -0.09654,0.829668 0.0062,0.871077 0.117868,0.04757 0.538495,0.04937 0.659745,0.0028 z m 0.770752,-0.445204 c -0.02798,-0.07294 0.01092,-0.09704 0.156595,-0.09704 0.106613,0 0.262564,-0.05574 0.346567,-0.123871 0.146364,-0.118707 0.151586,-0.15175 0.125183,-0.792508 -0.04039,-0.979986 -0.03772,-1.167658 0.01938,-1.358168 0.04873,-0.162557 0.02892,-0.182766 -0.361666,-0.369178 -0.227268,-0.108471 -0.535435,-0.216754 -0.684815,-0.240642 l -0.271602,-0.04344 v 0.267042 c 0,0.23771 0.01682,0.26705 0.153105,0.26705 0.144668,0 0.841074,0.256575 0.802123,0.295524 -0.01003,0.01003 -0.192665,-0.02279 -0.405863,-0.07294 -0.55473,-0.130478 -0.549371,-0.132411 -0.549371,0.197932 0,0.276956 0.009,0.291125 0.184431,0.291125 0.193558,0 0.586324,0.113073 0.677974,0.195176 0.02955,0.02648 -0.07235,0.02376 -0.22643,-0.006 -0.15409,-0.02978 -0.360214,-0.05541 -0.458065,-0.05696 -0.158399,-0.0025 -0.17791,0.02041 -0.17791,0.208813 0,0.207857 0.0072,0.21297 0.39707,0.287088 0.548344,0.104208 0.596808,0.192319 0.08795,0.159918 l -0.420333,-0.02677 v 0.259115 c 0,0.242332 0.01386,0.26173 0.21519,0.299484 0.118354,0.02221 0.264841,0.07667 0.325521,0.121038 0.09279,0.06785 0.06115,0.07751 -0.199019,0.06077 l -0.309347,-0.01991 0.21128,0.197182 c 0.224855,0.209854 0.42541,0.265332 0.362019,0.100138 z m -1.073413,-1.639128 c 0.06173,-0.03918 0.07141,-0.191707 0.03897,-0.613606 l -0.04314,-0.561476 H 40.62599 c -0.151953,0 -0.322339,0.01767 -0.378623,0.03927 -0.153639,0.05897 -0.127145,0.541413 0.0609,1.109058 0.0298,0.08992 0.467827,0.109503 0.598195,0.02676 z m -1.990622,-3.847152 c 0,-0.01062 -0.229793,-0.172768 -0.510655,-0.359976 -0.470954,-0.31392 -1.26062,-1.058306 -1.510452,-1.42384 l -0.105035,-0.153705 -0.174842,0.137528 c -0.09615,0.07564 -0.245348,0.137529 -0.33152,0.137529 -0.147577,0 -0.151,0.008 -0.0589,0.139609 0.148227,0.211614 1.032213,0.852395 1.500679,1.087799 0.63283,0.317998 1.190738,0.521838 1.190738,0.435055 z m -1.745567,-2.649049 c 0.0024,-0.157213 0.438299,-1.13909 0.793252,-1.786419 0.197779,-0.360689 0.340118,-0.656374 0.316312,-0.657081 -0.02381,-7.03e-4 -0.241782,-0.02997 -0.484388,-0.06506 l -0.441099,-0.06378 -0.523051,-0.552567 c -0.717317,-0.757796 -0.705769,-0.754145 -0.958836,-0.30312 -0.114563,0.204161 -0.382327,0.640788 -0.595056,0.970281 -0.42658,0.66073 -0.443677,0.789697 -0.174603,1.317123 0.156227,0.306248 0.342641,0.436186 1.239521,0.864053 0.808251,0.385582 0.826265,0.391602 0.827948,0.276559 z M 36.9103,42.289964 c -0.266863,-0.157414 -0.567284,-0.304428 -0.667601,-0.326692 -0.17359,-0.03853 -0.177111,-0.0463 -0.07294,-0.161421 0.06021,-0.06652 0.233119,-0.168169 0.384273,-0.225894 0.260977,-0.09967 0.287468,-0.09844 0.525806,0.0241 0.261151,0.134284 0.724316,0.57921 0.532013,0.511067 -0.06307,-0.02235 -0.155008,0.01487 -0.22356,0.09068 -0.09592,0.105993 -0.102586,0.150783 -0.03788,0.254413 0.0432,0.06918 0.07101,0.124461 0.06182,0.122868 -0.0091,-0.0016 -0.235067,-0.131703 -0.501931,-0.289121 z m 0.399246,-0.138503 c 0.06508,-0.05888 0.118295,-0.130449 0.118295,-0.159016 0,-0.0736 -0.539571,-0.380867 -0.668803,-0.380867 -0.138443,0 -0.139254,0.103368 -0.0012,0.156344 0.05847,0.02243 0.09161,0.05547 0.07366,0.07343 -0.01795,0.01795 -0.109194,0.0035 -0.202781,-0.03205 -0.09359,-0.03558 -0.217307,-0.0466 -0.274947,-0.02447 -0.07298,0.02801 0.02996,0.104327 0.339083,0.251402 0.537798,0.255867 0.4744,0.244021 0.616702,0.115242 z m 0.966287,-0.93299 c 0.242626,-0.172765 0.187534,-0.253829 -0.172503,-0.253829 -0.314354,0 -0.336997,0.02966 -0.186597,0.244382 0.123088,0.17573 0.125478,0.175793 0.3591,0.0096 z m -0.840087,-0.56256 c -0.1012,-0.189087 -0.651625,-0.920466 -0.692733,-0.920466 -0.04637,0 0.02277,0.47185 0.110801,0.756145 0.06301,0.203494 0.147205,0.249404 0.495444,0.270157 0.122395,0.0072 0.137278,-0.01091 0.08649,-0.105846 z m -8.299397,-5.805819 c 0.877595,-0.196207 1.853297,-0.427968 2.168227,-0.515025 l 0.572596,-0.158282 0.685276,0.292698 0.685275,0.292701 0.472705,-0.172407 c 0.259988,-0.09483 0.47258,-0.191285 0.472428,-0.21436 -1.3e-4,-0.02308 -0.21122,-0.15075 -0.469035,-0.283738 -0.784307,-0.404535 -1.592145,-1.220916 -2.021494,-2.042871 l -0.179591,-0.34382 -0.265988,0.04431 c -0.690344,0.114977 -1.571405,0.467397 -2.343045,0.937207 -0.461418,0.280933 -1.152514,0.832658 -1.103894,0.881277 0.01519,0.01519 0.19857,-0.05835 0.407457,-0.163492 1.179587,-0.593709 2.284584,-0.92191 2.643927,-0.785288 0.216198,0.0822 0.327057,0.468045 0.233887,0.814046 -0.175901,0.653248 -0.82227,0.973413 -2.942819,1.457659 l -0.638883,0.145892 -0.181607,-0.222179 c -0.149949,-0.183435 -0.188822,-0.203454 -0.222998,-0.114799 -0.06235,0.161722 0.141084,0.507221 0.298659,0.507221 0.07331,0 0.85132,-0.160534 1.728917,-0.356737 z m 10.237139,22.102016 c -0.21026,-0.05875 -0.230431,-0.153421 -0.06466,-0.30344 0.136452,-0.123472 0.138428,-0.123015 0.292378,0.06943 0.08526,0.106569 0.155142,0.215572 0.155325,0.242257 4.26e-4,0.05698 -0.162172,0.05348 -0.383047,-0.0081 z"
       id="path1217" />
  </g>
</svg>
