<?xml version="1.0" encoding="UTF-8" standalone="no"?>
<!-- Created with Inkscape (http://www.inkscape.org/) -->

<svg
   width="67.18763mm"
   height="11.848372mm"
   viewBox="0 0 67.187629 11.848373"
   version="1.1"
   id="svg842"
   inkscape:version="1.1.2 (b8e25be833, 2022-02-05)"
   sodipodi:docname="no-logo-2.svg"
   xmlns:inkscape="http://www.inkscape.org/namespaces/inkscape"
   xmlns:sodipodi="http://sodipodi.sourceforge.net/DTD/sodipodi-0.dtd"
   xmlns="http://www.w3.org/2000/svg"
   xmlns:svg="http://www.w3.org/2000/svg">
  <sodipodi:namedview
     id="namedview844"
     pagecolor="#ffffff"
     bordercolor="#666666"
     borderopacity="1.0"
     inkscape:pageshadow="2"
     inkscape:pageopacity="0.0"
     inkscape:pagecheckerboard="0"
     inkscape:document-units="mm"
     showgrid="false"
     inkscape:zoom="0.74029882"
     inkscape:cx="195.19145"
     inkscape:cy="70.241906"
     inkscape:window-width="1600"
     inkscape:window-height="837"
     inkscape:window-x="1912"
     inkscape:window-y="-8"
     inkscape:window-maximized="1"
     inkscape:current-layer="layer1" />
  <defs
     id="defs839">
    <rect
       x="89.153191"
       y="110.76608"
       width="402.54016"
       height="199.91927"
       id="rect5650" />
  </defs>
  <g
     inkscape:label="Calque 1"
     inkscape:groupmode="layer"
     id="layer1"
     transform="translate(-53.254561,-15.877257)">
    <g
       aria-label="NO LOGO"
       transform="matrix(0.26458333,0,0,0.26458333,28.7651,-17.427672)"
       id="text5648"
       style="font-size:64px;line-height:1.25;white-space:pre;shape-inside:url(#rect5650)">
      <path
         d="m 92.558594,169.59565 v -27.6875 q 0,-7.28125 4.34375,-11.65625 4.374996,-4.375 11.624996,-4.375 7.21875,0 11.03125,4.25 3.84375,4.25 3.84375,12.21875 v 27.25 h -12.6875 v -27.25 q 0,-3.90625 -2.78125,-3.90625 -2.6875,0 -2.6875,3.90625 v 27.25 z"
         style="font-family:'Bauhaus 93';-inkscape-font-specification:'Bauhaus 93, '"
         id="path949" />
      <path
         d="m 151.33984,125.8769 q 9.0625,0 15.53125,6.59375 6.5,6.59375 6.5,15.78125 0,9.34375 -6.53125,15.875 -6.53125,6.53125 -15.875,6.53125 -9.28125,0 -15.84375,-6.5625 -6.5625,-6.5625 -6.5625,-15.84375 0,-9.375 6.59375,-15.875 6.625,-6.5 16.1875,-6.5 z m -0.375,12.5625 q -3.90625,0 -6.65625,2.875 -2.75,2.875 -2.75,6.9375 0,4.0625 2.75,6.9375 2.78125,2.875 6.65625,2.875 3.9375,0 6.65625,-2.84375 2.75,-2.875 2.75,-6.96875 0,-4.09375 -2.75,-6.9375 -2.71875,-2.875 -6.65625,-2.875 z"
         style="font-family:'Bauhaus 93';-inkscape-font-specification:'Bauhaus 93, '"
         id="path951" />
      <path
         d="m 194.46484,126.9394 h 12.6875 v 25.34375 q 0,2.96875 0.9375,3.96875 0.96875,0.96875 3.78125,0.96875 h 0.65625 v 12.375 h -3.375 q -6.9375,0 -10.8125,-4.03125 -3.875,-4.0625 -3.875,-11.25 z"
         style="font-family:'Bauhaus 93';-inkscape-font-specification:'Bauhaus 93, '"
         id="path953" />
      <path
         d="m 237.02734,125.8769 q 9.0625,0 15.53125,6.59375 6.5,6.59375 6.5,15.78125 0,9.34375 -6.53125,15.875 -6.53125,6.53125 -15.875,6.53125 -9.28125,0 -15.84375,-6.5625 -6.5625,-6.5625 -6.5625,-15.84375 0,-9.375 6.59375,-15.875 6.625,-6.5 16.1875,-6.5 z m -0.375,12.5625 q -3.90625,0 -6.65625,2.875 -2.75,2.875 -2.75,6.9375 0,4.0625 2.75,6.9375 2.78125,2.875 6.65625,2.875 3.9375,0 6.65625,-2.84375 2.75,-2.875 2.75,-6.96875 0,-4.09375 -2.75,-6.9375 -2.71875,-2.875 -6.65625,-2.875 z"
         style="font-family:'Bauhaus 93';-inkscape-font-specification:'Bauhaus 93, '"
         id="path955" />
      <path
         d="m 283.08984,145.6894 h 12.09375 q 3.90625,4.84375 3.90625,10.21875 0,6.25 -4.59375,10.5 -4.5625,4.25 -11.25,4.25 -8.6875,0 -14.75,-6.59375 -6.0625,-6.59375 -6.0625,-16.0625 0,-9.5 6.15625,-15.8125 6.1875,-6.3125 15.4375,-6.3125 3.15625,0 7,1.28125 v 12.6875 q -3,-1.40625 -5.46875,-1.40625 -4.46875,0 -7.3125,2.78125 -2.8125,2.78125 -2.8125,7.21875 0,4.53125 2.625,7.1875 2.625,2.65625 7.09375,2.65625 2.84375,0 2.84375,-1.65625 0,-1.25 -1.875,-1.25 h -3.03125 z"
         style="font-family:'Bauhaus 93';-inkscape-font-specification:'Bauhaus 93, '"
         id="path957" />
      <path
         d="m 324.46484,125.8769 q 9.0625,0 15.53125,6.59375 6.5,6.59375 6.5,15.78125 0,9.34375 -6.53125,15.875 -6.53125,6.53125 -15.875,6.53125 -9.28125,0 -15.84375,-6.5625 -6.5625,-6.5625 -6.5625,-15.84375 0,-9.375 6.59375,-15.875 6.625,-6.5 16.1875,-6.5 z m -0.375,12.5625 q -3.90625,0 -6.65625,2.875 -2.75,2.875 -2.75,6.9375 0,4.0625 2.75,6.9375 2.78125,2.875 6.65625,2.875 3.9375,0 6.65625,-2.84375 2.75,-2.875 2.75,-6.96875 0,-4.09375 -2.75,-6.9375 -2.71875,-2.875 -6.65625,-2.875 z"
         style="font-family:'Bauhaus 93';-inkscape-font-specification:'Bauhaus 93, '"
         id="path959" />
    </g>
  </g>
</svg>
